/* XPM */
static char *_e30053e63bd48d9a010ba90d80ea523X63qt2J2J5gnOKzH[] = {
/* columns rows colors chars-per-pixel */
"64 64 187 2 ",
"   c None",
".  c #703D09",
"X  c #794909",
"o  c #71580E",
"O  c #7C530D",
"+  c #7E6210",
"@  c #844904",
"#  c #9B5C05",
"$  c #826614",
"%  c #8A6A12",
"&  c #83681B",
"*  c #9B7C1D",
"=  c #A66203",
"-  c #AB6604",
";  c #AE6A03",
":  c #B06C04",
">  c #B5730A",
",  c #A16710",
"<  c #A77912",
"1  c #9B7F24",
"2  c #A5811A",
"3  c #A58929",
"4  c #AE922E",
"5  c #B1912E",
"6  c #B59932",
"7  c #B5963A",
"8  c #C78F16",
"9  c #C1951C",
"0  c #CB9C1C",
"q  c #D09C1D",
"w  c #C29421",
"e  c #C29C26",
"r  c #C49B32",
"t  c #C7A027",
"y  c #CEA122",
"u  c #CDA529",
"i  c #D4A422",
"p  c #D9A722",
"a  c #DDAB24",
"s  c #D9AD2A",
"d  c #C4A93A",
"f  c #C8AD3C",
"g  c #C0A539",
"h  c #CCB039",
"j  c #DCB336",
"k  c #DFBB3A",
"l  c #D6B439",
"z  c #E2AF26",
"x  c #E1AE28",
"c  c #E5B127",
"v  c #E5B42B",
"b  c #EBB62A",
"n  c #EEBB2D",
"m  c #E5BB34",
"M  c #ECBE34",
"N  c #E6B738",
"B  c #E5BC3B",
"V  c #EAC23A",
"C  c #EAC139",
"Z  c #F5C634",
"A  c #F0C43A",
"S  c #BFAE5C",
"D  c #BCAE62",
"F  c #C7A94D",
"G  c #D2AF4B",
"H  c #CDB240",
"J  c #D6BB45",
"K  c #DCBF43",
"L  c #DBB346",
"P  c #CAAC53",
"I  c #DFBD5A",
"U  c #E5BA46",
"Y  c #E4BB4A",
"T  c #F8BC4A",
"R  c #E4BE51",
"E  c #E0BD5B",
"W  c #C0B266",
"Q  c #C3B66A",
"!  c #C6B96D",
"~  c #D7BD6C",
"^  c #CABE72",
"/  c #D5BE72",
"(  c #DDC242",
")  c #DDC249",
"_  c #E2C544",
"`  c #E3C847",
"'  c #EBC944",
"]  c #E1C54B",
"[  c #E6CA4B",
"{  c #E9CD4C",
"}  c #F3CD44",
"|  c #F8CF43",
" . c #F3C44C",
".. c #F9C54E",
"X. c #EDD24E",
"o. c #F8D145",
"O. c #F4D44C",
"+. c #F9D54A",
"@. c #FBD84E",
"#. c #E3CA51",
"$. c #EACE50",
"%. c #E2C05F",
"&. c #E6CF5B",
"*. c #F2CE50",
"=. c #FACC51",
"-. c #EED352",
";. c #F2D653",
":. c #FBD353",
">. c #F5DA55",
",. c #FADC55",
"<. c #F7DD59",
"1. c #FBDD58",
"2. c #F9DF58",
"3. c #FADE58",
"4. c #FCDF59",
"5. c #FCDF58",
"6. c #F9DF5B",
"7. c #F4D65B",
"8. c #FBE057",
"9. c #FBE159",
"0. c #FAE059",
"q. c #FBE15A",
"w. c #FCE159",
"e. c #FCE15A",
"r. c #FCE25A",
"t. c #FDE35A",
"y. c #FDE35B",
"u. c #FCE259",
"i. c #FEE45B",
"p. c #F9E15E",
"a. c #FFE65C",
"s. c #FCE25A",
"d. c #DDC16C",
"f. c #CDC175",
"g. c #DDC474",
"h. c #D2C67A",
"j. c #D5CA7E",
"k. c #E2C265",
"l. c #E1C46D",
"z. c #E8CF66",
"x. c #F5DF69",
"c. c #F6DE62",
"v. c #E1C672",
"b. c #E6D37E",
"n. c #ECDB79",
"m. c #FAE263",
"M. c #F6E16B",
"N. c #F8E370",
"B. c #F7E57E",
"V. c #FBE97D",
"C. c #DBC683",
"Z. c #D7CC80",
"A. c #DBCC83",
"S. c #DAC789",
"D. c #DDCB8C",
"F. c #DDD286",
"G. c #DFD489",
"H. c #DECE94",
"J. c #DFD095",
"K. c #E6D987",
"L. c #E1D68A",
"P. c #E3D88C",
"I. c #ECDE89",
"U. c #E8D981",
"Y. c #E2D397",
"T. c #E7DD91",
"R. c #E3D598",
"E. c #EADD9D",
"W. c #E6D99A",
"Q. c #F7E88B",
"!. c #FCED8B",
"~. c #F9E987",
"^. c #EAE195",
"/. c #EEE599",
"(. c #FAED93",
"). c #F1E79B",
"_. c #F4EA9D",
"`. c #F9EE9C",
"'. c #FDF094",
"]. c #EFE4A0",
"[. c #F2E6A2",
"{. c #F6ECA3",
"}. c #F8EEA6",
"|. c #FBF2A5",
" X c #FEF6AA",
".X c #FFF7AB",
"XX c #FFF8AC",
/* pixels */
"                                                                                                                                ",
"                                                                                                                                ",
"                                                    ) J                                                                         ",
"                                                  [ 4.[                                                                         ",
"                                          K     ] 3.,.C                                                                         ",
"                                        $.2.2.>.,.2.' M u                                                                       ",
"                                        ] y.>.B B B M m e                                                                       ",
"                                          ;.1.[ ;.[ k j [ ;.X.{ (                                                               ",
"                                          ) >.-.>.} B K 0.e.a.y.r.2.X.(                                                         ",
"                                          f [ ;.A k V <.a.y.0.0.r.r.r.8.-.(                                                     ",
"                                        ( >.>.-.{ -.3.0.0.y.y.y.r.r.0.r.t.0.{                                                   ",
"                                      _ 2.r.r.r.y.t.y.y.0.y.0.y.r.r.r.r.t.0.0.[                                                 ",
"                                    ` 2.a.e.y.0.0.0.y.y.e.e.e.y.r.r.r.r.r.r.a.0.<.;.[                                           ",
"                                  K <.r.0.0.y.y.y.y.t.0.0.y.a.0.r.r.r.t.r.r.e.0.8.2.:. .j                                       ",
"                                  >.a.0.y.y.y.y.0.a.y.0.0.y.0.y.r.r.r.0.r.a.e.a.,...T T .._ )                                   ",
"                                [ y.0.y.y.0.0.y.y.0.0.a.y.y.y.y.r.r.r.t.0.H 6 [ =.T T T ..:.` X.                                ",
"                                >.r.r.r.r.r.r.r.a.0.0.e.a.0.a.0.r.r.r.7.) 3 d 5  .T T T :.8.X.X.X.                              ",
"                              ` 0.r.r.r.r.r.r.r.0.t.a.0.a.0.0.y.r.r.r.-.f g a.>.=.....:.2.u.;.{ 2.                              ",
"                              X.t.r.r.r.r.r.r.r.0.t.0.t.y.0.a.y.<.0.r.>.g d a.r.r.5.5.r.r.r.<.X.r.)                             ",
"                              >.t.r.r.r.r.r.r.r.0.0.r.) 6 4 d -.>.>.r.r.;.;.r.4.5.r.r.r.r.r.2.O.;.                              ",
"                              8.y.y.3.:.:.:.:.1.,.-.g 1 f ) d 4 [ -.r.4.4.,.:.,.,.5.r.r.y.y.>.h                                 ",
"                            { u.0.:.=.....T ..=.:.>.f X.a.a.e.K 6 ;.,.:.:.=.=.:.:.>.r.r.0.a.0.`                                 ",
"                            ,.u.3.=.T T T T T T =.:.>.>.e.e.r.4.*.:.=.:.:.:.:.1.;.{ r.r.y.0.0.<.(                               ",
"                          ' ,.8.:...T T T T T T =.,.0.-.0.r.8.:.:.:.:.=.=.:.1.r.[ ;.r.r.0.a.e.y.2.l                             ",
"                          ' @.8.1.=.T T T T T ..:.4.r.;.2.2.:.:.=.:.:.:.,.4.r.2.#.6.<.0.0.a.y.y.t.X.                            ",
"                        y } +.8.r.:.=.=.....=.:.4.r.0.;.:.,.:.:.,.:.,.r.r.r.r.-.U.'.Q.M.p.0.0.y.t.0.(                           ",
"                        z V o.,.e.e.4.3.,.1.r.r.0.y.r.;.2.2.5.r.r.4.r.r.r.r.4.z.}. X|.).(.M.y.0.t.t.;.                          ",
"                      k A } o.+.r.e.e.e.r.r.r.r.t.t.0.8.r.2.-.-.;.;.;.7.>.<.#.K.XXXXXXj.F.|.!.6.y.t.0.(                         ",
"                    X.0.0.r.o.o.+.2.8.r.r.r.r.r.8.,.2.r.r.8.;.-.-.&.I.I.I.b.S Z.|.XX|.h.f.|.|.'.m.0.y.X.                        ",
"                  { r.r.r.2.| o.| +.,.8.8.r.8.@.+.@.8.r.r.r.t.8.m.(.|.XXXX|.f.D /.XXXXG.Q _.XX).n.m.0.'                         ",
"                ` 0.r.r.r.>.V o.| | o.o.o.o.o.o.o.,.8.r.r.r.r.8.B.|.XX XXXXXG.D F. XXX`.! ^..Xf.Q n.3.V 0                       ",
"                >.r.r.r.t.;.m +.o.| | | o.| o.+.,.r.t.t.r.r.2.M.).F./. XXXXX|.h.f.|.XXXXj.P..Xh.! _.7.b p                       ",
"              _ 0.y.0.y.y.' v +.2.+.o.o.o.+.,.8.r.r.r.r.r.r.e.!._.Q Q L. X XXX_.f.{.XXXX{./.XX^.P.|.z.b a                       ",
"              ( 0.y.y.y.-.v b A 5.r.r.8.8.8.8.r.r.r.r.r.r.0.M.|.XXP.Q D ^.XX XXX}..XXX.X XXXXX X X XU.v x                       ",
"                ) >.>.' v v b n O.r.r.r.r.r.r.r.r.r.r.r.r.0.!.|.XX X^.f.^ {.XXXXXX.X.XXXXXXX XXX.X}.S.N c                       ",
"                    s c b b b b M ,.r.r.r.r.r.r.r.r.r.r.0.c.`.XXXXXXXX|.T._.XX XXX.X.X.XXX XXX X XE.D.U c                       ",
"                    a b b b b b b A 8.r.r.r.r.r.r.r.r.r.0.V.|.P.F.|.XXXXXXXX XXXXX.X.X.X.X.X.X.X[.J.H.R z                       ",
"                    a b b b b b b b A 5.r.0.r.r.r.r.r.r.<.!.|.h.D Z.|.XXXXXXXX X.X.X.XXX.X.X.X}.Y.H.H.E z                       ",
"                    i b b b b b b b b A ,.8.r.r.r.r.r.0.m.`.XX{.L.F.|.XXXX X XXX.X.X.X.X.X.X}.Y.J.H.H.k.x                       ",
"                    0 b b b b b b b b b M | 2.r.r.r.r.r.M.|. XXXXX X XXX XXX XXX.X.X.X.X.X{.Y.H.H.H.H.E p                       ",
"                      x b b b b b b b b b b Z | :.8.r.8.V. X XXXXX XXX X.X.X.X.X.XXX.X}.E.J.H.H.H.H.H.R 0                       ",
"                      p b b b b b b b b b b b b M C | O.B.|.XX XXXXX XXX.X.XXX.X|.{.E.Y.H.J.H.H.H.H.C.j                         ",
"                        c b b b b b b b b b b b b b b b l.W.E.[.[.}.|.|.}.}.[.E.Y.J.H.H.H.H.H.H.H.H.v.i                         ",
"                        p b b b b b b b b b b b b b b b k.H.H.H.H.J.Y.R.Y.J.H.H.J.H.H.H.H.H.J.H.H.D.L <                         ",
"                          x b b b b b b b b b b b b b b I H.H.H.H.H.H.H.H.H.H.H.H.H.H.H.J.H.H.H.H.g.w X                         ",
"                          9 b b n n n n n b b b b b b b U D.H.H.H.H.J.H.H.J.H.J.H.H.H.H.H.H.H.H.C.r X                           ",
"                            9 n Z Z Z Z Z A n b b b b b v ~ H.H.H.H.J.H.H.J.H.H.J.H.H.H.H.J.H.S.G O                             ",
"                              v Z Z Z Z Z Z Z n b b b b b B g.H.H.H.H.H.H.H.H.H.H.H.H.J.H.H.S.G $                               ",
"                              u Z Z Z Z Z Z Z Z n b b b b b N l.S.J.H.H.H.H.H.H.H.H.H.H.D./ 7                                   ",
"                                M Z Z Z Z Z Z Z Z n b b b b b v Y d.C.D.H.H.H.H.H.D.S./ F &                                     ",
"                                e Z Z Z Z Z Z Z Z n n b b b b b b b N Y d.k.l.d.~ P 7 &                                         ",
"                                  e Z Z Z Z Z Z b q q z a c b c c x z p p y w 2 $                                               ",
"                                    * u x c p 8 > : > ,   $ % % + o                                                             ",
"                                        # : : : : : - .                                                                         ",
"                                          @ # = - = @                                                                           ",
"                                                                                                                                ",
"                                                                                                                                ",
"                                                                                                                                ",
"                                                                                                                                ",
"                                                                                                                                ",
"                                                                                                                                ",
"                                                                                                                                ",
"                                                                                                                                ",
"                                                                                                                                "
};
