/* XPM */
static char *_da21367aa5b444083a017fb1f6e1ca79KKSRE5tzSlqys5j[] = {
/* columns rows colors chars-per-pixel */
"64 64 245 2 ",
"   c None",
".  c #040404",
"X  c #11120F",
"o  c #221F13",
"O  c #2B2717",
"+  c #3C2E1F",
"@  c #302B1B",
"#  c #36311B",
"$  c #353628",
"%  c #2B2E25",
"&  c #582D00",
"*  c #523007",
"=  c #6A3901",
"-  c #733E00",
";  c #473925",
":  c #53481A",
">  c #564B1B",
",  c #764605",
"<  c #794A18",
"1  c #6C4B08",
"2  c #4B4938",
"3  c #53523D",
"4  c #575137",
"5  c #594930",
"6  c #6A562E",
"7  c #776429",
"8  c #7F6A30",
"9  c #5A5845",
"0  c #52514C",
"q  c #685D4E",
"w  c #706B55",
"e  c #615F68",
"r  c #5A6D74",
"t  c #696769",
"y  c #6A6975",
"u  c #7B6D74",
"i  c #6C787E",
"p  c #74727D",
"a  c #767678",
"s  c #766F69",
"d  c #965400",
"f  c #895109",
"g  c #B47812",
"h  c #885A27",
"j  c #835936",
"k  c #98663A",
"l  c #8B7532",
"z  c #8C6D2F",
"x  c #AB762E",
"c  c #A66938",
"v  c #AA7737",
"b  c #B1782C",
"n  c #9B5F17",
"m  c #C37600",
"M  c #C77900",
"N  c #D07F34",
"B  c #9A7955",
"V  c #947149",
"C  c #A57848",
"Z  c #B87E50",
"A  c #8D7972",
"S  c #C27D40",
"D  c #7E8572",
"F  c #B9841C",
"G  c #BF8901",
"H  c #B88428",
"J  c #B29135",
"K  c #A58E2D",
"L  c #DE961A",
"P  c #D38E08",
"I  c #EA9704",
"U  c #FCA500",
"Y  c #FBA90B",
"T  c #E4B400",
"R  c #CA852E",
"E  c #CA8734",
"W  c #D38A36",
"Q  c #D89437",
"!  c #D89128",
"~  c #E19B23",
"^  c #E19F2D",
"/  c #E69A36",
"(  c #E28E2E",
")  c #CFAF33",
"_  c #E4A53C",
"`  c #E5A335",
"'  c #F2A63C",
"]  c #F2B733",
"[  c #FCCA06",
"{  c #FECD16",
"}  c #FFD118",
"|  c #EFC014",
" . c #FECB29",
".. c #E8C73A",
"X. c #FCD63A",
"o. c #FCD63A",
"O. c #FBCE31",
"+. c #96845E",
"@. c #B68E53",
"#. c #848466",
"$. c #9B8567",
"%. c #928E77",
"&. c #A78967",
"*. c #BB996A",
"=. c #A78A77",
"-. c #B69977",
";. c #AF906F",
":. c #B2A27B",
">. c #9EA07E",
",. c #C78748",
"<. c #C79749",
"1. c #D69749",
"2. c #D49C53",
"3. c #CD914C",
"4. c #DAA753",
"5. c #E5A948",
"6. c #E4AD52",
"7. c #E7B358",
"8. c #F3B44B",
"9. c #C19E73",
"0. c #CD9E62",
"q. c #C5A678",
"w. c #D1AC6F",
"e. c #E8B967",
"r. c #FFD847",
"t. c #FDCD55",
"y. c #FFD355",
"u. c #F0C850",
"i. c #FECB67",
"p. c #FCD86B",
"a. c #FDCB78",
"s. c #FED577",
"d. c #EDC973",
"f. c #FFE169",
"g. c #FFE277",
"h. c #DDC27D",
"j. c #616D8D",
"k. c #6B7789",
"l. c #757988",
"z. c #777791",
"x. c #5D7482",
"c. c #867994",
"v. c #847985",
"b. c #837AA7",
"n. c #778791",
"m. c #749BBB",
"M. c #748EAC",
"N. c #7CA6A9",
"B. c #779EC2",
"V. c #7AA8CB",
"C. c #76D5EE",
"Z. c #76E9FD",
"A. c #79E6EB",
"S. c #6CD8D8",
"D. c #878895",
"F. c #85979A",
"G. c #968E8C",
"H. c #AA958D",
"J. c #9AA58D",
"K. c #BCA388",
"L. c #A6A996",
"P. c #AFAC94",
"I. c #879CB0",
"U. c #A59AB3",
"Y. c #92ACAF",
"T. c #AAB9A7",
"R. c #BBBDAC",
"E. c #B5B6A9",
"W. c #B2B6B2",
"Q. c #C5A985",
"!. c #D8B685",
"~. c #C6B297",
"^. c #CEB894",
"/. c #E1B88D",
"(. c #C5BCA9",
"). c #C6B6B6",
"_. c #B1C2B6",
"`. c #FDCC84",
"'. c #FEDD8B",
"]. c #E7C89A",
"[. c #FCCD95",
"{. c #FFDD94",
"}. c #FADC99",
"|. c #E8CB8C",
" X c #FFE28C",
".X c #FEE485",
"XX c #FFE394",
"oX c #FFE39B",
"OX c #FFE99B",
"+X c #CEC6AF",
"@X c #FBD8A7",
"#X c #FCD9B7",
"$X c #EDD2AF",
"%X c #FFE2A3",
"&X c #FFE3AB",
"*X c #FEEBAA",
"=X c #FFEBA3",
"-X c #FFE4B3",
";X c #FFEDB2",
":X c #FEE4BC",
">X c #FFEABB",
",X c #F2E4B1",
"<X c #FFF2BC",
"1X c #FFF1B4",
"2X c #FFF0AE",
"3X c #D7C394",
"4X c #8DAEC7",
"5X c #B3AFCE",
"6X c #B5ADDF",
"7X c #CBB9C8",
"8X c #C4B9D6",
"9X c #CABEED",
"0X c #92D3D2",
"qX c #BCCAD9",
"wX c #B2CCD1",
"eX c #86E2D8",
"rX c #8CD4EA",
"tX c #B9CCE3",
"yX c #B7ECF8",
"uX c #B4EEF7",
"iX c #82E3F8",
"pX c #D4CDC8",
"aX c #FBDBC6",
"sX c #F8DDCF",
"dX c #FFE4C4",
"fX c #FFEAC5",
"gX c #FFE4CC",
"hX c #FFEBCC",
"jX c #FFE4D4",
"kX c #FFEAD3",
"lX c #FEE6DA",
"zX c #FFEBDB",
"xX c #F9EDD3",
"cX c #D4CCED",
"vX c #E8D9F8",
"bX c #E4D6EB",
"nX c #D2E6F3",
"mX c #FFECE2",
"MX c #FFEFE8",
"NX c #FFF2E5",
"BX c #FFF2EA",
"VX c #EBE5FC",
"CX c #FFFEFF",
"ZX c #F8F3FD",
"AX c #EFE8F4",
/* pixels */
"                                                                      M M m m m                                                 ",
"                                                            M m m M M M M M m m m g m M                                         ",
"                                                      I I M P P M M g d f , = = = = 1 f d g                                     ",
"                                                  U U U U U U I M f = 1 1 , 1 1 & * * * = = d                                   ",
"                                              Y U U Y U U I P n K ) ]  .{ [ [ T T P f * & = = -                                 ",
"                                            i.t.t.] Y Y L 3.4.u.o.r.X.o. . .{ [ [ [ [ G = & & = -                               ",
"                                        s.s.s.s.s.p.i.0.e.@X@Xa.i.i.y.r.o.o.O. .{ [ [ [ P 1 1 = =                               ",
"                                      8.8.i.i.s.s.d.!.$XaXaXjX#X@X[.a.i.y.r.o.O.} } } } } F 1 < < ,                             ",
"                                    P P I L L ` 7./.aXaXaXsXlXjXaX#X@X[.a.i.t.o.o. .{ } { | h < < f                             ",
"                                  L L L L L L ~ ].sXaXjXjXjXlXjXsXsXaX#X[.`.i.t.r.o. .} } { F < h h                             ",
"                                ~ L ~ L L L ~ ].mXlXjXlXlXlXmXmXzXlXlXsXaX[.`.i.y.o.o. .} } P h h h                             ",
"                                ~ L ~ ~ L L 7.lXmXmXNXNXNXNXNXBXMXMXMXMXmXaX@X`.i.y.r.o. .} ) 7 h h                             ",
"                              ^ ~ ~ ^ ~ ~ ` @XBXMXMXzXkXfXdX>XfXgXfXgXzXBXBXlX@Xa.i.y.r.O. .E z h z                             ",
"                              ^ ^ ^ ^ ^ ~ e.mXNXzXzX>X-X&X@X&X&X@X-X:X:XgXzXBXmX#Xa.y.r.o.O.H z k C                             ",
"                            6.` ^ ^ ` ` _ $XNXzX:X:X-X&X%X%X%X%XoX%X-X-X#XgXjXzXzX-Xi.y.r.u.l k k                               ",
"                            5._ _ _ _ ` 5.:XNXfX%X&X;X&X%XoXoX{.{.}.@X-X-X:XgXjXkXkX&Xp.r.<.k V @.                              ",
"                            ` _ _ 5._ _ u.dXxX:X}.oX%X&XOXOXoX X'.{.oX%X&X-XaXjXsXdXhXoXu.C V C                                 ",
"                              _ 5.5._ 5.d.dXhX%X{.{.%X=X*X%XOX X'.XX{.@X&X#XdXjXgX#X:X>X*.V B                                   ",
"                              ~ 5.5.5.5.7.:XfX%X{.'.XX=X*X<X=X X.X'.{.oX&X-X:XgXjX#X@Xq.B B                                     ",
"                              L ` 6.6.6.6.@XfX@X{. X X*X;X<X1XOX X XXXoX@X-X:XgXjXaXq.B &.                                      ",
"                                ~ 6.7.6.6.d.fXoX{. X X*X1X<X2X=XXX XXXoX&X-X:XjXsXK.B -.                                        ",
"                                  6.7.7.7.e.].%XoX'. X=X<X<X2X=XOXXX{.oX&X-X:X$X-.$.P.                                          ",
"                                    |.d.e.7.e.`.}.{. XOX<XfX2XOXOXOXoX%X&X-XdXaXK.$.K.                                          ",
"                                        $X|.e.d.d.'. XOX2X<X;XXXXX%X&X&X-X:XdXjXsXK.&.K.                                        ",
"                                              aXw.w.w.w.@X1X;XOXXX%X-X>X:XdXgXlXlX$Xq.;.K.                                      ",
"                                              ^.*.*.*.!.}.;X>X%X%X&X-XfXfXfXhXlXkX#X[.:.;.~.                                    ",
"                                            +Xq.9.*.:.|.&X>XfX;X&X-X>XfXhXlXlXlXgX#X}.}.Q.-.^.                                  ",
"                                          pXq.q.q.q.Q.-X*X>XhX>X-XfXfXfXhXzXzXlX#X@X%X1X,X:.-.+X                                ",
"                                          *.q.:.q.q.$X>X:X>XxXhXfXfXfXjXlXzXmXjX#X&X;X<X Xd.q.K.(.                              ",
"                                        @.H w.!.Q.^.kXkXkXhXzXxXhXkXlXzXzXmXjXgX:X;X<XOXg.f.p.q.@.                              ",
"                                        F g <.w.!.aXBXNXzXzXxXNXlXzXzXmXMXzXjXfXxX<XOX.Xf.f.f.u.n f                             ",
"                                      H F F R w.].zXmXBXBXBXBXBXNXMXMXMXmXkXhXfX1X2X.Xg.f.f.p...P d d                           ",
"                                    @.F F R b J $XmXmXmXmXMXMXBXBXBXBXMXkXhX;XOXXX X.Xs.d.!.w.x d d                             ",
"                                    F b H b H <.#XjXjXlXlXlXmXzXlXlXhX:X&X%XXX'.]./.^.Q.E.~.K.                                  ",
"                          q s c.=.x x J x J K e.[.:XfXgXjXgXgXgXfXdX#X@X].^.P.K.P.P.E.W.pX5XU.    u w w                         ",
"                    w u v.c.D.D.C x c v v c @.p.f.XX>X>XfX:X;X,X3X+XR.P.E.R.wXqXqXtXcXcXqX5Xb.b.b.c.v.v.A s w                   ",
"                  c.H.c.z.z.l.B x v v c v v |.=X X.X*X,X$X+X+XE.G.T.wXqXuXuXuXyXuXyXyXyXyXrXV.V.M.b.z.b.b.c.u B                 ",
"              U.G.c.z.z.l.z.A b x c x x b @.bXsX~.=.%.E.).+XpXbXbXAXAXVXVXnXnXnXyXuXuXuXuXZ.Z.Z.C.V.B.4X4Xz.M.M.a               ",
"            7Xc.v.j.j.z.l.z.A ;.C C k b b B A e s n.E.lXZXCXCXCXCXCXCXCXCXZXZXVXVXAXnXyXrXA.A.Z.Z.iXtXcX6XB.B.M.M.r             ",
"            U.H.j.j.j.l.z.z.9 A =.=.A &.+.A D.5X6XcXZXCXCXCXCXCXCXCXCXCXCXCXCXCXZXAXAXnXrXS.eXA.Z.Z.rX4X4X4XB.B.M.r 9           ",
"            H.H.l.z.j.k.z.l.2 2 A ;.H.H.).R.W.8X6XcXcXVXZXZXZXCXCXCXCXCXCXCXCXZXZXVXvXcXwXS.eXeXZ.C.4XI.m.B.B.B.M.0 6           ",
"              P.D.l.n.k.l.l.y 0 2 w B v.~.W.R.).R.).8X9X9XcXbXvXvXVXVXVXVXvXvXvXcX9XcXpX0X0X0X0X0X4XI.N.m.m.m.M.r e D           ",
"                l.D.c.b.D.n.l.u e 0 2 2 q %.L.T._.E.R.(.).).).7X7X7X7X7X7X7X7X7XpX_._.wX_.0X5XY.I.I.I.I.N.M.z.l.9 D             ",
"              *.,.0.q.K.H.H.D.v.A y y e 0 0 0 e D F.Y.T.R._.+XR.(.(.(.).(.R.R.R.E.W.W.Y.Y.Y.F.n.D.D.F.F.F.J.Q.2.@.<.*.          ",
"            0.2.3.3.3.3.0.9.Z K.H.A y l.v.p y y e e t i n.n.N.Y.Y.Y.Y.Y.Y.Y.Y.F.n.n.n.x.n.x.x.n.G.H.H.-.w.3.N S ,.3.4.          ",
"            Q @.Z 2.3.3.2.2.0.Z Z Z A t u p l.A D.i a l.D a i a l.n.l.a a y k.D p l.D n.D k.a =.;.@.2.1.S N 1.1.N E _           ",
"            Q E N 7.4.7.2.S 1.2.Z c k 6 9 9 #.L.>.q e q %.L.>.D t t %.L.J.a t t s %.J.%.0 9 k c c 1.1.1.5.5.Q N N N Q           ",
"              E N ' ' 6.N S S 2.Z c V 8 3 3 s T.J.9 3 3 D L.>.9 4 3 s T.L.9 3 3 9 %.J.#.0 6 c c S 4.E / ' 5.' ~ R R H           ",
"                Q Q ! 8.8.Q W / 4.c k k 2 2 D J.>.9 3 3 #.T.>.9 3 3 D J.>.9 3 2 9 >.T.%.2 h c c ,.' ( / u.8./ R E R             ",
"                  Q W Q 7.Q ( / _ R R h X X 2 #.D : % $ s L.>.9 $ $ 6 >.%.2 % O ; w w 3 X * N ! / ' ( / 7.Q E Q                 ",
"                    E Q Q / / ' _ E R J l : # # O X . . o # # X . . X # O X . . X o O * > K J b E / ' / / Q E                   ",
"                                        r.....) ) K K 8 7 > : : : : : > 1 7 l K ) ) ....u.                                      ",
"                                            @.) ) ..X.X.X.X.o.o.X.o.X.o.X.X.....) J K K                                         ",
"                                                5 > 6 7 8 l l l l l l 8 7 6 5 5 $ ;                                             ",
"                                                      + $ + + + + $ # # $ +                                                     ",
"                                                                                                                                ",
"                                                                                                                                ",
"                                                                                                                                ",
"                                                                                                                                ",
"                                                                                                                                ",
"                                                                                                                                ",
"                                                                                                                                ",
"                                                                                                                                ",
"                                                                                                                                "
};
