/* XPM */
static char *_c2c8c903edd4f56d58d98b1b07b60a34fnU53r3A9ERDrNb[] = {
/* columns rows colors chars-per-pixel */
"64 64 67 1 ",
"  c #070B0D",
". c #0A0D0E",
"X c #0D100F",
"o c #0B0F11",
"O c #0E1214",
"+ c #0F1817",
"@ c #0F1619",
"# c #0F181A",
"$ c #101516",
"% c #111817",
"& c #111619",
"* c #131B1C",
"= c #181F1E",
"- c #16211E",
"; c #19221E",
": c #161D23",
"> c #181F24",
", c #171F28",
"< c #181F28",
"1 c #162123",
"2 c #192225",
"3 c #1B2925",
"4 c #1C252C",
"5 c #1E292E",
"6 c #1F322C",
"7 c #1E2730",
"8 c #1F2931",
"9 c #20272E",
"0 c #212C2D",
"q c #22322E",
"w c #21392E",
"e c #212B33",
"r c #252F38",
"t c #243334",
"y c #253B34",
"u c #283A36",
"i c #263239",
"p c #29353C",
"a c #273A39",
"s c #2B3C3C",
"d c #274037",
"f c #274439",
"g c #2B443C",
"h c #2B4A3D",
"j c #2E3C42",
"k c #303E43",
"l c #2E4340",
"z c #2D4B40",
"x c #324244",
"c c #314D45",
"v c #36464B",
"b c #38454D",
"n c #364C49",
"m c #394C4E",
"M c #325345",
"N c #37524B",
"B c #3C514E",
"V c #345A49",
"C c #3E5153",
"Z c #3C5C53",
"A c #3D6154",
"S c #42555A",
"D c #485F61",
"F c #4B6965",
"G c #4A7B65",
"H c #577274",
"J c #607C7E",
/* pixels */
"j4585e<O*574744428e:@:77447444>*&845459:*u57<e244888$@55e7547<2:",
"p858e77::559444<4784&:4444<74>>2&25744<4#:7544,547e8,*r474e7547:",
"4775e521:49544444544&*94e4745>$OO4754592#%44722747884*p8<<7777,o",
"j5755:O$%:4*:479<524$<9<754::@O2O55797:@OO24:47977e82o272747::@@",
"***4$:OOXO##@oo:2,74::#O@@@@:#*=O*&***$oO.O*#OO%,25e3O#OO@@*@**=",
"&o$*JD&$O3*4GM OOO:0OOOoooooo$Oo&&OOCHjOO#@*AG1 OoO55Oooooo  o$o",
"<<$44>4<24424>O>225A*&6Ve*o2<::,<<:@:,5::,,422*O>22jy%=gc2o2e<:4",
"4:ov4><92*:22:%4888e87742:O4<2<29<:O:<::4,@:221#7587954444$:4<4<",
"2>&s2>>2>@@1#%O:8888474142O2,472><>@*<>,>2#@#**14487877227;:225<",
"@=2;::**#@%*#+O2844882*#*2Oq*1*@&*:@*2::#**##OO34884771##*3O:::*",
"O:3$OOOOOoo*2.O2:*@*:#OOooO*OOooO$=2=OOOOOOO==X11**#:@#@o OO&Ooo",
"i&OO&a5.&54u3oOO@O1y1dyjOO8244:499XO@3l# 2u5w+OOO#13**6p4on:2ss>",
">252285@#584521si:14::55@344424744423885$:24452:18855#77,o1427<4",
"4ee8554:188854224588,188:214442,45455884$>49542:24885:244O22<2<9",
"2422454-28885343428741531114442:25243883&:444241158881422O144424",
"#:#@#-**22#1111111541*111@2121*1@**##*1-%&*:>:1**2254*1*:@3:2:*@",
"#***#***%*#11-%@$@*$&&*pax0%@O*1:%#**#:@#%-*11&$%@O%$2$0g9ly@$$*",
"nFaOOOO*235n##>>55<4<&*rii55e*O%SnZ2OOOO=wyez$5:4445e:3aiei55eOO",
"887@#2**88882i559ei79&>r7877e:.5i87:11:248eetO477eeee44ire2>44O.",
"e7:O24454588:j44eere9>9e77er89$Se75*a5<<44e75&4448ree85e49r8882%",
"54#27287277e*44>7ee54>2reeee82O8re2@:55457279$22247e5<>97jr885:u",
"52:0757<2*:e32>*:44%&*>97*2225O4e5:*>5752,>22.:2>452@=14482@24%@",
">>002::@OOO;%=#@@&OOOO$*OO&O%;o1<2<22:*:*OOO= O&@&@OO=%%*@OO#=OO",
"t&*3:ywO0i=0x1***%:22:1=uOO>kgtig>%*=*fO:g4:B4&*%&22:>:1:* oqx0a",
"t4245e5=584ei544%eeee8878*O5jrrri94<57t**957pe44418eeee88: Xtiri",
"8ee8ee13544e8842*eereer842&2r8eeeree8e59*4<4557425eeerre7:214eee",
"7<8e9e>0e4454544*ie888e7:2&588849<,,788>&54749<42:7e87e774&aeeee",
"77<8e>>>54557442:se7747742%>78e7744,72>:*45574542*584r8782%z777e",
"77447@**>75277421248222224=2447444424:o:$44544522*tr222<>4%y7<74",
"@:@@>@>&*2:*:>12=&#>:@%$*=O#@:2#@@@O@2O:O1=::::11&3::%@@@=OO*&::",
"o@qM4$OooooooooOO>m*oOOh=nny221O O-yne&o OO..O.O#*9qOoO-3:nNt5:*",
"Z,5t54*o%2:3n::>58i2o:4085i842@ o,4er<<OO:e=4#::48rtO.*454et55:o",
"b445e5>>2e88,2477ee$O:74774554OO&4497742%t787:444787$2Z5442477:o",
"b74759ro:788424478e>&>72<8e75:42@,7544,5%48772444788*&555,7744<:",
"2747495>:547,,>4<774&*5497e72721O4555574O*844,444788<Oe7744e7<::",
"487775:>1274,4442754&:7777872>O-O55877>*O@44244744475o>975787:@@",
"2275<>OO$&:**#278744>>42::,:*#@-$e495:>OO.**##::47482O5<*::,::O@",
"@@$$&Oo  oo$O  O>22e:$&Oo@@O#:2O$&$&&$Oo. OOOO o@25tqO&@oO##@***",
"cz5n7::&ui>22io:y*O$OooOfooO:>42Zgt*j72:*e8::,3O12@OO$oo:8Oo5>22",
"2>Oe<:::4>:<4:O*4848jk4,2:o7,,,222:O:<::44544:*o:8888k5>14o>:>,,",
"4,Ox52442::*2*O:587e45424:O4447242>@:22e2>@*2>##4874457472@42:22",
">>=q2>::*OO:1@O:5887884,:2O2242:>>>&*1:,>@O@*O%128877742:,O14:<<",
"@:5;**@@O@#:-+O2882522:##%o1##:@%$112**#@O@O-O$-287222>@@#*O:@@*",
"OO3%O$o oOOOO..O*@oOOOOOO.:f21*2$$%;1@OooOooO. O*:@OOoOOOoOaq**:",
">uyOu2iOqt>243#Op,14i:>4O24q222425j3-12>o:222r1@24@*2r22:o188:24",
"5545574::85455225t54::45#2e87477*4445445O*25842128e54247:O182744",
"48e5992:=488552344852>27132,,22275e5558124958552248e8>457O:44144",
"::1254>05555521154882:1:5#:,24>2:*:24443&:44442::2584>112@1,4422",
"@%####*2;1=12:*11*25*#**=%**###*@**%###*-**:321**1-52%**=+2*1###",
"@O#&@@OOO*&*%%*165525#te2*>12-+%@&&&&&OOO*%&@%+:55324:&:4::*15*+",
"<4>O53*$1222*245e88ee&ere5999:.sr>4*Ow**12>>:O>48t887>2eer5>55OO",
"e25&254<5ee7=e548ee85:3e7e5e9:.Fre9:652425575$848eeee24r5e>5e5#X",
"ee:%5549>7e8:x44erpee>44e,eiee$pee>O:4e8,4772@5728tr844eeeer84>:",
"b9*254542255q:44ee79>228ee5982.ee7>O>5872,444O447e8872:eree4e5*:",
"4::04,4e,@+q=*:%%2*$=1=474::52X4e>::25>,>:@*2X:>*2>OO*w544>@*3$O",
"&<00*Oo@O@-3 -21$$%q2$1*@ooo&$.=>&201@oo@O@#o 33:##*23;**OoOO%O%",
"22e>*:*O*:2e2552&t9ae4742=o&<<<<2><4>**;$4>2>>551=48it482>O.*>>4",
"ee8797:%22474452*eireiee<9O9eereree94950*5495e54415reieee>OO8eer",
"ereee725e54e8842*9ere9e952O49ee8erreee54*74455772qereee772o3eee9",
"<4<778>>r5e94444:je857e72::<eee<<<9<<79**77879242%4ee757e:@a7eee",
"79477*:257558524:sr7454551*9ee847<7re7O@O57748424*4e99974<%h7eee",
"<<::>@:*>424281:=w224<*:4>*1<<7:<<<<>*O:O22245222*64<<<2>>$2,,<<",
"oooO=&@O@*@**:@#*1$Oo$$$==$O$$**oo.o*:@O ###:#O#=$2OOOOO$=OOO$&:",
"oO:,2j1 +Oooo#ww>2p>.2s1::>*>>$ .t$::<koO@@oO%-6=>253.3s>:<>:&:O"
};
